# xmcd
#
# Track frame offsets:
#	150
#	14522
#	30586
#	45554
#	58581
#	76709
#	89046
#	102232
#	114775
#	128120
#	142907
#	158892
#	172478
#
# Disc length: 2463 seconds
# Revision: 0
# Processed by: cddbd v1.5.2PL0 Copyright (c) Steve Scherf et al.
# Submitted via: dBpowerAMP V12.0
#
DISCID=a4099d0d
DTITLE=The Grass Cats - Saturday Night Company
DYEAR=2009
DGENRE=Country
TTITLE0=A Good Way To Get The Blues
TTITLE1=Saturday Night Company
TTITLE2=The Right Place
TTITLE3=Life Of The Blues
TTITLE4=Love Me As Hard As You Hurt Me
TTITLE5=Detour
TTITLE6=I Shot The Sheriff
TTITLE7=Carolina Blue
TTITLE8=I'll Keep On Walking
TTITLE9=All Of Tennessee
TTITLE10=Cold Ol' Rainy Day
TTITLE11=Take It On The Run
TTITLE12=Play This Game
EXTD=
EXTT0=
EXTT1=
EXTT2=
EXTT3=
EXTT4=
EXTT5=
EXTT6=
EXTT7=
EXTT8=
EXTT9=
EXTT10=
EXTT11=
EXTT12=
PLAYORDER=
